<?xml version="1.0" encoding="UTF-8" standalone="no"?>
<!-- Created with Inkscape (http://www.inkscape.org/) -->

<svg
   version="1.1"
   width="400"
   height="400"
   id="svg2985"
   sodipodi:docname="B-Flat.svg"
   inkscape:version="1.1.1 (3bf5ae0d25, 2021-09-20, custom)"
   xmlns:inkscape="http://www.inkscape.org/namespaces/inkscape"
   xmlns:sodipodi="http://sodipodi.sourceforge.net/DTD/sodipodi-0.dtd"
   xmlns="http://www.w3.org/2000/svg"
   xmlns:svg="http://www.w3.org/2000/svg"
   xmlns:rdf="http://www.w3.org/1999/02/22-rdf-syntax-ns#"
   xmlns:cc="http://creativecommons.org/ns#"
   xmlns:dc="http://purl.org/dc/elements/1.1/">
  <sodipodi:namedview
     id="namedview10"
     pagecolor="#ffffff"
     bordercolor="#666666"
     borderopacity="1.0"
     inkscape:pageshadow="2"
     inkscape:pageopacity="0.0"
     inkscape:pagecheckerboard="0"
     showgrid="false"
     inkscape:zoom="2.1775"
     inkscape:cx="200"
     inkscape:cy="200.22962"
     inkscape:window-width="1920"
     inkscape:window-height="1061"
     inkscape:window-x="1920"
     inkscape:window-y="0"
     inkscape:window-maximized="1"
     inkscape:current-layer="svg2985" />
  <metadata
     id="metadata2991">
    <rdf:RDF>
      <cc:Work
         rdf:about="">
        <dc:format>image/svg+xml</dc:format>
        <dc:type
           rdf:resource="http://purl.org/dc/dcmitype/StillImage" />
        <dc:title />
      </cc:Work>
    </rdf:RDF>
  </metadata>
  <defs
     id="defs2989" />
  <path
     d="M 154.62715,68.897885 V 330.33538 c 50.60646,-8.91916 107.04045,-28.23845 107.625,-91.53125 -0.41432,-14.82975 -8.43853,-42.00143 -39,-42.375 -13.27971,-0.23198 -26.02576,-0.51662 -59.46875,41.53125 V 68.897885 Z m 55.9375,147.031245 c 22.85685,0.34831 25.99037,14.73802 27.11811,27.54502 1.0193,49.22054 -36.67489,64.41642 -73.6875,75.1875 l -0.21186,-62.92002 c 13.10599,-19.55622 31.24047,-40.24672 46.78125,-39.8125 z"
     id="path3018"
     style="fill:#000000;stroke:#000000;stroke-width:1px;stroke-linecap:butt;stroke-linejoin:miter;stroke-opacity:1" />
  <path
     d="m 280.11433,289.8254 v -31.15032 l 2.05198,-3.0014 c 11.71056,-17.12889 20.85745,-26.68098 30.66513,-32.02357 4.87864,-2.65756 11.61406,-4.57762 14.91951,-4.2531 10.0503,0.98674 16.67712,3.90144 20.2596,8.91087 2.3744,3.32015 3.41576,6.80246 4.14986,13.87712 1.2928,12.45902 -0.71268,25.13086 -5.61947,35.50718 -4.13526,8.74477 -11.0266,16.76185 -19.88932,23.13837 -10.40248,7.48436 -24.54728,13.6551 -45.425,19.81689 l -1.11229,0.32828 z"
     id="path3023"
     style="fill:none;stroke:none" />
  <path
     d="m 280.11433,289.8254 v -31.15032 l 2.05198,-3.0014 c 11.71056,-17.12889 20.85745,-26.68098 30.66513,-32.02357 4.87864,-2.65756 11.61406,-4.57762 14.91951,-4.2531 10.0503,0.98674 16.67712,3.90144 20.2596,8.91087 2.3744,3.32015 3.41576,6.80246 4.14986,13.87712 1.2928,12.45902 -0.71268,25.13086 -5.61947,35.50718 -4.13526,8.74477 -11.0266,16.76185 -19.88932,23.13837 -10.40248,7.48436 -24.54728,13.6551 -45.425,19.81689 l -1.11229,0.32828 z"
     id="path3025"
     style="fill:none;stroke:none" />
</svg>
